<?xml version="1.0" encoding="UTF-8" standalone="no"?>
<!-- Created with Inkscape (http://www.inkscape.org/) -->

<svg
   width="204.282mm"
   height="142.46805mm"
   viewBox="0 0 204.282 142.46805"
   version="1.1"
   id="svg1"
   xml:space="preserve"
   inkscape:version="1.4.2 (ebf0e940, 2025-05-08)"
   sodipodi:docname="areaLawExample.svg"
   inkscape:export-filename="areaLawExample.pdf"
   inkscape:export-xdpi="96"
   inkscape:export-ydpi="96"
   xmlns:inkscape="http://www.inkscape.org/namespaces/inkscape"
   xmlns:sodipodi="http://sodipodi.sourceforge.net/DTD/sodipodi-0.dtd"
   xmlns="http://www.w3.org/2000/svg"
   xmlns:svg="http://www.w3.org/2000/svg"><sodipodi:namedview
     id="namedview1"
     pagecolor="#ffffff"
     bordercolor="#000000"
     borderopacity="0.25"
     inkscape:showpageshadow="2"
     inkscape:pageopacity="0.0"
     inkscape:pagecheckerboard="0"
     inkscape:deskcolor="#d1d1d1"
     inkscape:document-units="mm"
     inkscape:zoom="0.84510596"
     inkscape:cx="494.02089"
     inkscape:cy="311.20358"
     inkscape:window-width="1272"
     inkscape:window-height="847"
     inkscape:window-x="0"
     inkscape:window-y="25"
     inkscape:window-maximized="0"
     inkscape:current-layer="layer1" /><defs
     id="defs1"><linearGradient
       id="swatch439"
       inkscape:swatch="solid"><stop
         style="stop-color:#07224a;stop-opacity:1;"
         offset="0"
         id="stop439" /></linearGradient></defs><g
     inkscape:label="Capa 1"
     inkscape:groupmode="layer"
     id="layer1"
     transform="translate(-21.404086,-118.21335)"><circle
       style="fill:none;fill-opacity:1;fill-rule:evenodd;stroke:#66679a;stroke-width:1;stroke-linejoin:round;stroke-dasharray:none;stroke-opacity:1"
       id="path1"
       cx="63.227043"
       cy="219.03877"
       r="10" /><circle
       style="fill:none;fill-opacity:1;fill-rule:evenodd;stroke:#66679a;stroke-width:1;stroke-linejoin:round;stroke-dasharray:none;stroke-opacity:1"
       id="path1-2"
       cx="94.904015"
       cy="152.33685"
       r="10" /><circle
       style="fill:none;fill-opacity:1;fill-rule:evenodd;stroke:#66679a;stroke-width:1;stroke-linejoin:round;stroke-dasharray:none;stroke-opacity:1"
       id="path1-4"
       cx="204.18117"
       cy="177.10417"
       r="10" /><circle
       style="fill:none;fill-opacity:1;fill-rule:evenodd;stroke:#66679a;stroke-width:1;stroke-linejoin:round;stroke-dasharray:none;stroke-opacity:1"
       id="path1-0"
       cx="119.8337"
       cy="193.24376"
       r="10" /><circle
       style="fill:none;fill-opacity:1;fill-rule:evenodd;stroke:#66679a;stroke-width:1;stroke-linejoin:round;stroke-dasharray:none;stroke-opacity:1"
       id="path1-41"
       cx="153.66399"
       cy="141.83685"
       r="10" /><circle
       style="fill:none;fill-opacity:1;fill-rule:evenodd;stroke:#66679a;stroke-width:1;stroke-linejoin:round;stroke-dasharray:none;stroke-opacity:1"
       id="path1-5"
       cx="165.80701"
       cy="240.03877"
       r="10" /><text
       xml:space="preserve"
       style="font-size:11.2889px;line-height:0px;font-family:Times;-inkscape-font-specification:Times;text-align:start;writing-mode:lr-tb;direction:ltr;text-anchor:start;fill:#66679a;fill-opacity:1;fill-rule:evenodd;stroke:#6a699d;stroke-width:0.1;stroke-linejoin:round;stroke-dasharray:none;stroke-opacity:1"
       x="60.382771"
       y="222.84216"
       id="text1"
       transform="translate(-2.2916662e-8)"><tspan
         sodipodi:role="line"
         id="tspan1"
         style="fill:#66679a;fill-opacity:1;stroke:#6a699d;stroke-width:0.1;stroke-dasharray:none;stroke-opacity:1"
         x="60.382771"
         y="222.84216">2</tspan></text><text
       xml:space="preserve"
       style="font-size:11.2889px;line-height:0px;font-family:Times;-inkscape-font-specification:Times;text-align:start;writing-mode:lr-tb;direction:ltr;text-anchor:start;fill:#66679a;fill-opacity:1;fill-rule:evenodd;stroke:#6a699d;stroke-width:0.1;stroke-linejoin:round;stroke-dasharray:none;stroke-opacity:1"
       x="92.216835"
       y="156.11543"
       id="text1-3"
       transform="translate(-2.2916662e-8)"><tspan
         sodipodi:role="line"
         id="tspan1-6"
         style="fill:#66679a;fill-opacity:1;stroke:#6a699d;stroke-width:0.1;stroke-dasharray:none;stroke-opacity:1"
         x="92.216835"
         y="156.11543">3</tspan></text><text
       xml:space="preserve"
       style="font-size:11.2889px;line-height:0px;font-family:Times;-inkscape-font-specification:Times;text-align:start;writing-mode:lr-tb;direction:ltr;text-anchor:start;fill:#66679a;fill-opacity:1;fill-rule:evenodd;stroke:#6a699d;stroke-width:0.1;stroke-linejoin:round;stroke-dasharray:none;stroke-opacity:1"
       x="117.10519"
       y="197.03061"
       id="text1-4"
       transform="translate(-2.2916662e-8)"><tspan
         sodipodi:role="line"
         id="tspan1-60"
         style="fill:#66679a;fill-opacity:1;stroke:#6a699d;stroke-width:0.1;stroke-dasharray:none;stroke-opacity:1"
         x="117.10519"
         y="197.03061">4</tspan></text><text
       xml:space="preserve"
       style="font-size:11.2889px;line-height:0px;font-family:Times;-inkscape-font-specification:Times;text-align:start;writing-mode:lr-tb;direction:ltr;text-anchor:start;fill:#66679a;fill-opacity:1;fill-rule:evenodd;stroke:#6a699d;stroke-width:0.1;stroke-linejoin:round;stroke-dasharray:none;stroke-opacity:1"
       x="201.53809"
       y="180.7863"
       id="text1-7"
       transform="translate(-2.2916662e-8)"><tspan
         sodipodi:role="line"
         id="tspan1-1"
         style="fill:#66679a;fill-opacity:1;stroke:#6a699d;stroke-width:0.1;stroke-dasharray:none;stroke-opacity:1"
         x="201.53809"
         y="180.7863">7</tspan></text><text
       xml:space="preserve"
       style="font-size:11.2889px;line-height:0px;font-family:Times;-inkscape-font-specification:Times;text-align:start;writing-mode:lr-tb;direction:ltr;text-anchor:start;fill:#66679a;fill-opacity:1;fill-rule:evenodd;stroke:#6a699d;stroke-width:0.1;stroke-linejoin:round;stroke-dasharray:none;stroke-opacity:1"
       x="151.01814"
       y="145.65402"
       id="text1-37"
       transform="translate(-2.2916662e-8)"><tspan
         sodipodi:role="line"
         id="tspan1-8"
         style="fill:#66679a;fill-opacity:1;stroke:#6a699d;stroke-width:0.1;stroke-dasharray:none;stroke-opacity:1"
         x="151.01814"
         y="145.65402">5</tspan></text><text
       xml:space="preserve"
       style="font-size:11.2889px;line-height:0px;font-family:Times;-inkscape-font-specification:Times;text-align:start;writing-mode:lr-tb;direction:ltr;text-anchor:start;fill:#66679a;fill-opacity:1;fill-rule:evenodd;stroke:#6a699d;stroke-width:0.1;stroke-linejoin:round;stroke-dasharray:none;stroke-opacity:1"
       x="162.97375"
       y="243.83665"
       id="text1-35"><tspan
         sodipodi:role="line"
         id="tspan1-4"
         style="fill:#66679a;fill-opacity:1;stroke:#6a699d;stroke-width:0.1;stroke-dasharray:none;stroke-opacity:1"
         x="162.97375"
         y="243.83665">6</tspan></text><text
       xml:space="preserve"
       style="font-size:11.2889px;line-height:0px;font-family:Times;-inkscape-font-specification:Times;text-align:start;writing-mode:lr-tb;direction:ltr;text-anchor:start;fill:#66679a;fill-opacity:1;fill-rule:evenodd;stroke:#6a699d;stroke-width:0.1;stroke-linejoin:round;stroke-dasharray:none;stroke-opacity:1"
       x="45.755699"
       y="170.39102"
       id="text1-9"
       transform="translate(-2.2916662e-8)"><tspan
         sodipodi:role="line"
         id="tspan1-17"
         style="fill:#66679a;fill-opacity:1;stroke:#6a699d;stroke-width:0.1;stroke-dasharray:none;stroke-opacity:1"
         x="45.755699"
         y="170.39102">1</tspan></text><circle
       style="fill:none;fill-opacity:1;fill-rule:evenodd;stroke:#66679a;stroke-width:1;stroke-linejoin:round;stroke-dasharray:none;stroke-opacity:1"
       id="path1-54"
       cx="48.599976"
       cy="166.60417"
       r="10" /><path
       style="fill:none;fill-opacity:1;fill-rule:evenodd;stroke:#66679a;stroke-width:1;stroke-linejoin:round;stroke-dasharray:none;stroke-opacity:1"
       d="m 41.290243,173.42823 c -2.755564,9.9155 -5.860164,25.53236 3.785699,33.24905 3.04968,2.43975 6.964251,4.37779 10.011391,6.55244"
       id="path2" /><path
       style="fill:none;fill-opacity:1;fill-rule:evenodd;stroke:#66679a;stroke-width:1;stroke-linejoin:round;stroke-dasharray:none;stroke-opacity:1"
       d="m 58.599975,166.60417 c 1.221799,1.06125 3.293641,0.70372 4.891324,0.70372 12.675455,0 13.527877,-9.97731 21.736731,-12.44609"
       id="path3" /><path
       style="fill:none;fill-opacity:1;fill-rule:evenodd;stroke:#66679a;stroke-width:1;stroke-linejoin:round;stroke-dasharray:none;stroke-opacity:1"
       d="m 66.692586,209.65847 c -0.345702,-3.69556 1.558838,-6.80123 3.146544,-9.97664 3.439211,-6.87842 12.362373,-9.28154 16.081171,-15.97538 1.952231,-3.51401 1.25579,-7.7601 2.010146,-11.53189 0.75189,-3.75945 2.993591,-7.9069 4.726969,-10.26233"
       id="path4" /><path
       style="fill:none;fill-opacity:1;fill-rule:evenodd;stroke:#66679a;stroke-width:1;stroke-linejoin:round;stroke-dasharray:none;stroke-opacity:1"
       d="m 102.95885,158.26304 c 9.1601,0.12314 9.27022,10.10442 11.52669,16.87384 1.01563,3.0469 7.11379,4.0502 5.34816,8.10688"
       id="path7" /><path
       style="fill:none;fill-opacity:1;fill-rule:evenodd;stroke:#66679a;stroke-width:1;stroke-linejoin:round;stroke-dasharray:none;stroke-opacity:1"
       d="m 73.227043,219.03877 c 1.967529,1.06085 5.057722,0.59305 7.297603,0.42713 11.486866,-0.85088 12.529282,-7.56439 20.207264,-14.28262 3.27736,-2.86769 8.53455,-3.40729 11.06683,-5.60725"
       id="path9" /><path
       style="fill:none;fill-opacity:1;fill-rule:evenodd;stroke:#66679a;stroke-width:1;stroke-linejoin:round;stroke-dasharray:none;stroke-opacity:1"
       d="m 69.694374,226.66594 c 1.349968,-1.00256 5.366599,-1.07454 8.237479,-0.11758 6.725531,2.24185 11.011612,7.66527 18.509237,8.73636 7.22021,1.03146 13.84902,-4.16938 21.02649,-1.77689 7.75059,2.58353 14.07692,7.99723 22.35916,9.03251 4.34403,0.54301 15.05421,2.26832 15.98027,-2.50157"
       id="path10" /><path
       style="fill:none;fill-opacity:1;fill-rule:evenodd;stroke:#66679a;stroke-width:1;stroke-linejoin:round;stroke-dasharray:none;stroke-opacity:1"
       d="m 124.89081,201.87079 c 1.40539,-0.33894 5.66813,3.32384 7.82838,5.72411 3.97109,4.41233 4.56865,10.82697 8.44021,15.25161 2.88781,3.30035 6.47947,3.26578 9.92095,5.33066 2.9144,1.74864 5.3015,3.99724 7.04848,5.45492"
       id="path11" /><path
       style="fill:none;fill-opacity:1;fill-rule:evenodd;stroke:#66679a;stroke-width:1;stroke-linejoin:round;stroke-dasharray:none;stroke-opacity:1"
       d="m 104.4188,149.2597 c 6.36638,-1.18802 14.02609,-10.56568 21.04477,-7.55768 3.48042,1.49161 5.84178,3.26506 9.77288,3.70185 2.8082,0.31202 7.87575,-0.46836 9.03251,0.42142"
       id="path12" /><path
       style="fill:none;fill-opacity:1;fill-rule:evenodd;stroke:#66679a;stroke-width:1;stroke-linejoin:round;stroke-dasharray:none;stroke-opacity:1"
       d="m 125.73746,185.17247 c 0.21494,-3.08358 1.95004,-5.60826 4.3164,-7.63657 5.60124,-4.80106 14.74111,-5.53843 19.24961,-11.54976 3.33318,-4.44425 2.41998,-9.74582 4.36051,-14.14929"
       id="path13" /><path
       style="fill:none;fill-opacity:1;fill-rule:evenodd;stroke:#66679a;stroke-width:1;stroke-linejoin:round;stroke-dasharray:none;stroke-opacity:1"
       d="m 162.25535,146.95431 c 1.51815,3.8609 10.97009,4.17165 14.73793,7.18592 1.90745,1.52595 1.54045,3.98127 3.998,5.03451 5.23541,2.24375 12.92631,1.22847 17.17657,5.47873 1.07474,1.07475 0.99242,2.33837 1.9891,3.29616"
       id="path14" /><path
       style="fill:none;fill-opacity:1;fill-rule:evenodd;stroke:#66679a;stroke-width:1;stroke-linejoin:round;stroke-dasharray:none;stroke-opacity:1"
       d="m 129.8337,193.24376 c 2.99394,-0.97016 6.99685,-1.2344 10.43726,-2.38121 7.43225,-2.47741 12.36813,-8.1077 20.58227,-9.47673 3.49699,-0.58283 9.52045,-1.50682 13.17858,-0.59229 5.65358,1.41339 17.39028,4.14057 20.58227,0.1475"
       id="path15" /><path
       style="fill:none;fill-opacity:1;fill-rule:evenodd;stroke:#66679a;stroke-width:1;stroke-linejoin:round;stroke-dasharray:none;stroke-opacity:1"
       d="m 174.67193,236.06963 c 12.13457,-4.36712 5.09413,-13.64633 9.05156,-19.18673 1.76831,-2.47564 4.55369,-6.28962 7.09925,-7.98667 1.86049,-1.24032 4.29787,-2.8655 5.50193,-4.792 1.88758,-3.02013 -0.2969,-7.32549 0.97615,-10.82636 0.79974,-2.19929 3.7271,-4.32047 3.7271,-6.46891"
       id="path16" /><path
       style="opacity:0.2;fill:#ff679a;fill-opacity:1;fill-rule:evenodd;stroke:#66ff9a;stroke-width:1;stroke-linejoin:round;stroke-dasharray:none;stroke-opacity:1"
       d="m 164.16399,120.29791 c -20.36227,0.0621 -41.27594,6.42596 -37.84617,30.43435 2.39854,16.78977 16.57995,30.92557 16.57995,52.86814 0,13.48247 -11.76428,25.01681 -9.07205,38.478 0.56467,2.82331 4.76409,11.51817 7.19508,13.13883 11.11539,7.41026 47.83333,6.47636 57.56058,-2.50263 11.5397,-10.65203 9.84587,-21.65601 13.16869,-34.9473 1.06235,-4.24942 6.01151,-10.70579 7.47804,-15.10538 5.43437,-16.30312 9.54407,-31.71536 1.26229,-48.27893 -3.00119,-6.00236 -8.95013,-11.64806 -13.83664,-16.53457 -7.62043,-7.62043 -13.92714,-12.25163 -18.72648,-13.96148 -5.45203,-1.94239 -10.13998,-3.00877 -23.76329,-3.58903 z"
       id="path17"
       sodipodi:nodetypes="cssssssssssc" /><path
       style="opacity:0.2;fill:#00679a;fill-opacity:1;fill-rule:evenodd;stroke:#66ff9a;stroke-width:1;stroke-linejoin:round;stroke-dasharray:none;stroke-opacity:1"
       d="m 25.251191,159.11839 c 1.178155,-2.9868 4.536393,-7.26077 5.950189,-8.74588 14.718869,-15.46127 52.106463,-34.88101 67.951819,-19.03566 9.738571,9.73856 7.858031,21.54574 15.362881,32.80301 13.13856,19.70785 29.41688,34.9518 8.57351,59.26907 -14.51477,16.9339 -57.327345,20.89191 -74.925055,8.57351 -14.978764,-10.48513 -11.42422,-30.70807 -23.291684,-42.57554 -7.830147,-7.83015 -0.56093,-27.95054 0.37834,-30.28851 z"
       id="path18"
       sodipodi:nodetypes="cssssssc" /><path
       style="fill:none;fill-opacity:1;fill-rule:evenodd;stroke:#66ff9a;stroke-width:1;stroke-linejoin:round;stroke-dasharray:4, 4;stroke-dashoffset:0;stroke-opacity:1"
       d="m 111.79874,124.4539 c -2.64239,22.65327 14.84388,47.36491 24.61887,66.9149 6.00908,12.01817 -14.01433,55.31689 -19.23565,64.01366"
       id="path19" /></g></svg>
