<?xml version="1.0" encoding="UTF-8" standalone="no"?>
<!-- Created with Inkscape (http://www.inkscape.org/) -->

<svg
   width="260.84393mm"
   height="60.707413mm"
   viewBox="0 0 260.84393 60.707413"
   version="1.1"
   id="svg1"
   xml:space="preserve"
   inkscape:version="1.4.2 (ebf0e940, 2025-05-08)"
   sodipodi:docname="ejBasico.svg"
   xmlns:inkscape="http://www.inkscape.org/namespaces/inkscape"
   xmlns:sodipodi="http://sodipodi.sourceforge.net/DTD/sodipodi-0.dtd"
   xmlns="http://www.w3.org/2000/svg"
   xmlns:svg="http://www.w3.org/2000/svg"><sodipodi:namedview
     id="namedview1"
     pagecolor="#ffffff"
     bordercolor="#000000"
     borderopacity="0.25"
     inkscape:showpageshadow="2"
     inkscape:pageopacity="0.0"
     inkscape:pagecheckerboard="0"
     inkscape:deskcolor="#d1d1d1"
     inkscape:document-units="mm"
     inkscape:zoom="3.4743324"
     inkscape:cx="458.9371"
     inkscape:cy="86.779263"
     inkscape:window-width="1272"
     inkscape:window-height="754"
     inkscape:window-x="0"
     inkscape:window-y="25"
     inkscape:window-maximized="0"
     inkscape:current-layer="layer1"
     showgrid="false"><inkscape:page
       x="2.6219027e-06"
       y="0"
       width="260.84393"
       height="60.707413"
       id="page1"
       margin="0"
       bleed="0"
       inkscape:export-filename="ejBasico.pdf"
       inkscape:export-xdpi="96"
       inkscape:export-ydpi="96" /><inkscape:page
       x="274.82239"
       y="-84.893013"
       width="78.316666"
       height="61.03056"
       id="page2"
       margin="0"
       bleed="0" /></sodipodi:namedview><defs
     id="defs1"><inkscape:path-effect
       effect="bspline"
       id="path-effect37"
       is_visible="true"
       lpeversion="1.3"
       weight="33.333333"
       steps="2"
       helper_size="0"
       apply_no_weight="true"
       apply_with_weight="true"
       only_selected="false"
       uniform="false" /><inkscape:path-effect
       effect="bspline"
       id="path-effect36"
       is_visible="true"
       lpeversion="1.3"
       weight="33.333333"
       steps="2"
       helper_size="0"
       apply_no_weight="true"
       apply_with_weight="true"
       only_selected="false"
       uniform="false" /><clipPath
       clipPathUnits="userSpaceOnUse"
       id="clipPath2"><path
         d="M 0,0 H 222 V 173 H 0 Z"
         transform="matrix(0.27777778,0,0,-0.27777778,2.847889,47.490222)"
         id="path2" /></clipPath><clipPath
       clipPathUnits="userSpaceOnUse"
       id="clipPath4"><path
         d="M 0,0 H 222 V 173 H 0 Z"
         transform="matrix(0.27777778,0,0,-0.27777778,2.847889,29.956222)"
         id="path4" /></clipPath><clipPath
       clipPathUnits="userSpaceOnUse"
       id="clipPath6"><path
         d="M 0,0 H 222 V 173 H 0 Z"
         transform="matrix(0.27777778,0,0,-0.27777778,2.847889,23.978222)"
         id="path6" /></clipPath><clipPath
       clipPathUnits="userSpaceOnUse"
       id="clipPath8"><path
         d="M 0,0 H 222 V 173 H 0 Z"
         transform="matrix(0.27777778,0,0,-0.27777778,2.847889,17.602222)"
         id="path8" /></clipPath><clipPath
       clipPathUnits="userSpaceOnUse"
       id="clipPath10"><path
         d="M 0,0 H 222 V 173 H 0 Z"
         transform="matrix(0.27777778,0,0,-0.27777778,-5.869111,39.520222)"
         id="path10" /></clipPath><clipPath
       clipPathUnits="userSpaceOnUse"
       id="clipPath12"><path
         d="M 0,0 H 222 V 173 H 0 Z"
         transform="matrix(0.27777778,0,0,-0.27777778,-5.869111,27.565222)"
         id="path12" /></clipPath><clipPath
       clipPathUnits="userSpaceOnUse"
       id="clipPath14"><path
         d="M 0,0 H 222 V 173 H 0 Z"
         transform="matrix(0.27777778,0,0,-0.27777778,-5.869111,15.609222)"
         id="path14" /></clipPath><clipPath
       clipPathUnits="userSpaceOnUse"
       id="clipPath16"><path
         d="M 0,0 H 222 V 173 H 0 Z"
         transform="matrix(0.27777778,0,0,-0.27777778,-5.869111,3.6542222)"
         id="path16" /></clipPath><clipPath
       clipPathUnits="userSpaceOnUse"
       id="clipPath18"><path
         d="M 0,0 H 222 V 173 H 0 Z"
         transform="matrix(0.27777778,0,0,-0.27777778,-55.68311,47.490222)"
         id="path18" /></clipPath><clipPath
       clipPathUnits="userSpaceOnUse"
       id="clipPath20"><path
         d="M 0,0 H 222 V 173 H 0 Z"
         transform="matrix(0.27777778,0,0,-0.27777778,-55.68311,29.956222)"
         id="path20" /></clipPath><clipPath
       clipPathUnits="userSpaceOnUse"
       id="clipPath22"><path
         d="M 0,0 H 222 V 173 H 0 Z"
         transform="matrix(0.27777778,0,0,-0.27777778,-55.68311,23.978222)"
         id="path22" /></clipPath><clipPath
       clipPathUnits="userSpaceOnUse"
       id="clipPath24"><path
         d="M 0,0 H 222 V 173 H 0 Z"
         transform="matrix(0.27777778,0,0,-0.27777778,-55.68311,17.602222)"
         id="path24" /></clipPath></defs><g
     inkscape:label="Capa 1"
     inkscape:groupmode="layer"
     id="layer1"
     transform="translate(54.822397,-84.893012)"><text
       xml:space="preserve"
       style="font-size:11.2889px;line-height:0px;font-family:Times;-inkscape-font-specification:Times;text-align:start;writing-mode:lr-tb;direction:ltr;text-anchor:start;fill:#6a699d;fill-opacity:1;stroke:#000000;stroke-width:0;stroke-linejoin:round;stroke-dasharray:none;stroke-opacity:1"
       x="-39.518463"
       y="127.90266"
       id="text25"><tspan
         sodipodi:role="line"
         id="tspan25"
         style="fill:#6a699d;fill-opacity:1;stroke-width:0;stroke-dasharray:none"
         x="-39.518463"
         y="127.90266">1</tspan></text><circle
       style="fill:none;fill-opacity:1;fill-rule:evenodd;stroke:#6a699d;stroke-width:0.799999;stroke-linejoin:round;stroke-dasharray:none;stroke-opacity:1"
       id="path26"
       cx="-36.674191"
       cy="124.11581"
       r="10" /><text
       xml:space="preserve"
       style="font-size:11.2889px;line-height:0px;font-family:Times;-inkscape-font-specification:Times;text-align:start;writing-mode:lr-tb;direction:ltr;text-anchor:start;fill:#6a699d;fill-opacity:1;stroke:#000000;stroke-width:0;stroke-linejoin:round;stroke-dasharray:none;stroke-opacity:1"
       x="-4.8189011"
       y="100.33807"
       id="text25-5"><tspan
         sodipodi:role="line"
         id="tspan25-6"
         style="fill:#6a699d;fill-opacity:1;stroke-width:0;stroke-dasharray:none"
         x="-4.8189011"
         y="100.33807">2</tspan></text><circle
       style="fill:none;fill-opacity:1;fill-rule:evenodd;stroke:#6a699d;stroke-width:0.799999;stroke-linejoin:round;stroke-dasharray:none;stroke-opacity:1"
       id="path26-3"
       cx="-1.9746273"
       cy="96.534676"
       r="10" /><text
       xml:space="preserve"
       style="font-size:11.2889px;line-height:0px;font-family:Times;-inkscape-font-specification:Times;text-align:start;writing-mode:lr-tb;direction:ltr;text-anchor:start;fill:#6a699d;fill-opacity:1;stroke:#000000;stroke-width:0;stroke-linejoin:round;stroke-dasharray:none;stroke-opacity:1"
       x="28.296677"
       y="131.61531"
       id="text25-1"><tspan
         sodipodi:role="line"
         id="tspan25-4"
         style="fill:#6a699d;fill-opacity:1;stroke-width:0;stroke-dasharray:none"
         x="28.296677"
         y="131.61531">3</tspan></text><circle
       style="fill:none;fill-opacity:1;fill-rule:evenodd;stroke:#6a699d;stroke-width:0.799999;stroke-linejoin:round;stroke-dasharray:none;stroke-opacity:1"
       id="path26-8"
       cx="30.983854"
       cy="127.83673"
       r="10" /><text
       xml:space="preserve"
       style="font-size:11.2889px;line-height:0px;font-family:Times;-inkscape-font-specification:Times;text-align:start;writing-mode:lr-tb;direction:ltr;text-anchor:start;fill:#6a699d;fill-opacity:1;stroke:#000000;stroke-width:0;stroke-linejoin:round;stroke-dasharray:none;stroke-opacity:1"
       x="63.709507"
       y="110.72153"
       id="text25-3"><tspan
         sodipodi:role="line"
         id="tspan25-1"
         style="fill:#6a699d;fill-opacity:1;stroke-width:0;stroke-dasharray:none"
         x="63.709507"
         y="110.72153">4</tspan></text><circle
       style="fill:none;fill-opacity:1;fill-rule:evenodd;stroke:#6a699d;stroke-width:0.799999;stroke-linejoin:round;stroke-dasharray:none;stroke-opacity:1"
       id="path26-1"
       cx="66.438026"
       cy="106.93468"
       r="10" /><path
       style="fill:none;fill-opacity:1;fill-rule:evenodd;stroke:#6a699d;stroke-width:0.799999;stroke-linejoin:round;stroke-dasharray:none;stroke-opacity:1"
       d="m -28.161779,118.86806 c 8.87609,-1.26872 9.412483,-14.85622 17.171585,-18.00677"
       id="path27" /><path
       style="fill:none;fill-opacity:1;fill-rule:evenodd;stroke:#6a699d;stroke-width:0.799999;stroke-linejoin:round;stroke-dasharray:none;stroke-opacity:1"
       d="m 6.8908207,101.1611 c 2.1107347,0.16389 4.2348833,1.28842 5.6279013,2.88044 1.65091,1.88675 1.174338,4.93666 1.927704,7.19676 1.629207,4.88761 6.607493,6.62515 9.74457,9.25969"
       id="path32" /><path
       style="fill:none;fill-opacity:1;fill-rule:evenodd;stroke:#6a699d;stroke-width:0.799999;stroke-linejoin:round;stroke-dasharray:none;stroke-opacity:1"
       d="m 35.217681,118.77722 c 0.920893,-7.79328 10.901674,-4.99837 16.111193,-6.15604 2.1121,-0.46935 3.931783,-2.04407 5.517348,-2.85855"
       id="path34" /><path
       style="fill:none;fill-opacity:1;fill-rule:evenodd;stroke:#6a699d;stroke-width:0.799999;stroke-linejoin:round;stroke-dasharray:none;stroke-opacity:1"
       d="m 134.42074,84.917816 c -0.97841,1.475881 -1.95682,2.951761 -2.88366,5.007878 -0.92684,2.056117 -1.80209,4.692367 -2.33402,6.656084 -0.53192,1.963717 -0.7205,3.254796 -0.86509,4.904272 -0.14459,1.64947 -0.24518,3.65723 -0.29548,5.9746 -0.0503,2.31737 -0.0503,4.9442 -0.0503,7.52306 0,2.57885 0,5.10957 0,6.49467 0,1.3851 0,1.62453 0.0496,2.74279 0.0496,1.11827 0.14869,3.11528 0.26583,4.66265 0.11713,1.54738 0.25227,2.64504 0.49761,3.90306 0.24534,1.25803 0.60087,2.67634 0.91579,3.77041 0.31493,1.09407 0.58924,1.86384 0.94779,2.70979 0.35854,0.84596 0.8013,1.76806 1.17812,2.48504 0.37682,0.71698 0.68768,1.22881 1.10774,1.83188 0.42005,0.60306 0.94928,1.29733 1.25383,1.6486 0.30455,0.35127 0.38453,0.35954 0.46446,0.36781"
       id="path36"
       inkscape:path-effect="#path-effect36"
       inkscape:original-d="m 134.42074,84.917816 c -0.97841,1.475879 -1.95682,2.951758 -2.93522,4.427637 -0.87529,2.636356 -1.75054,5.272606 -2.6258,7.90891 -0.18859,1.291131 -0.37716,2.582211 -0.56574,3.873317 -0.1006,2.00784 -0.20119,4.0156 -0.30179,6.0234 0,2.62694 0,5.25377 0,7.88066 0,2.53082 0,5.06154 0,7.5923 0,0.23944 0,0.47887 0,0.7183 0.0991,1.9971 0.19825,3.99411 0.29738,5.99116 0.13514,1.0977 0.27028,2.19536 0.40542,3.29303 0.35554,1.41838 0.71107,2.83669 1.0666,4.25504 0.27432,0.76979 0.54863,1.53956 0.82295,2.30934 0.44277,0.92213 0.88553,1.84423 1.32829,2.76634 0.31088,0.51185 0.62174,1.02368 0.93261,1.53552 0.52925,0.69429 1.05847,1.38856 1.5877,2.08284 0.0799,0.008 0.15985,0.0165 0.23978,0.0248" /></g><g
     id="g1"
     inkscape:groupmode="layer"
     inkscape:label="1"
     transform="matrix(0.26458333,0,0,0.26458334,274.82241,-84.893012)"><path
       id="path9"
       d="m 4.5833628,-3.1902812 c 0,-0.7942709 -0.048828,-1.5917969 -0.3971354,-2.3307292 -0.4589843,-0.9570313 -1.2760416,-1.1165365 -1.6959635,-1.1165365 -0.5957031,0 -1.3248698,0.2604167 -1.73177084,1.1881511 -0.31901042,0.6868489 -0.37109375,1.4648437 -0.37109375,2.2591146 0,0.7486979 0.0423177,1.6471354 0.44921875,2.4023437 0.42968754,0.80729167 1.15559894,1.00585938 1.64388024,1.00585938 0.5371093,0 1.2955729,-0.20833334 1.735026,-1.15559896 C 4.5345347,-1.624526 4.5833628,-2.4025208 4.5833628,-3.1902812 Z M 2.4804983,-1.7708333e-4 c -0.3873698,0 -0.9765625,-0.25065103667 -1.155599,-1.20442711667 -0.1106771,-0.5989583 -0.1106771,-1.516927 -0.1106771,-2.1028645 0,-0.6380209 0,-1.295573 0.08138,-1.8326823 0.1888021,-1.1881511 0.9375,-1.2760417 1.1848959,-1.2760417 0.328776,0 0.9863281,0.1790365 1.1751302,1.1653646 0.1009114,0.5566406 0.1009114,1.3151041 0.1009114,1.9433594 0,0.7454427 0,1.422526 -0.1106771,2.0605468 C 3.4961233,-0.29965625 2.929717,-1.7708333e-4 2.4804983,-1.7708333e-4 Z M 17.873565,-6.3771302 c 0,-0.2408854 0,-0.2604167 -0.227865,-0.2604167 -0.618489,0.6380209 -1.497396,0.6380209 -1.816406,0.6380209 v 0.3092448 c 0.201823,0 0.78776,0 1.305338,-0.2571615 v 5.1595052 c 0,0.35807292 -0.0293,0.47851563 -0.924479,0.47851563 h -0.31901 V -1.7708333e-4 C 16.23945,-0.02947396 17.105336,-0.02947396 17.505726,-0.02947396 c 0.397136,0 1.263021,0 1.614583,0.0292968767 V -0.30942187 h -0.31901 c -0.898437,0 -0.927734,-0.11067709 -0.927734,-0.47851563 z m 16.597493,3.186849 c 0,-0.7942709 -0.04883,-1.5917969 -0.397135,-2.3307292 -0.458985,-0.9570313 -1.276042,-1.1165365 -1.695964,-1.1165365 -0.595703,0 -1.32487,0.2604167 -1.731771,1.1881511 -0.31901,0.6868489 -0.371093,1.4648437 -0.371093,2.2591146 0,0.7486979 0.04232,1.6471354 0.449218,2.4023437 0.429688,0.80729167 1.155599,1.00585938 1.643881,1.00585938 0.537109,0 1.295572,-0.20833334 1.735026,-1.15559896 0.31901,-0.68684892 0.367838,-1.46484372 0.367838,-2.25260412 z m -2.102864,3.19010411667 c -0.38737,0 -0.976563,-0.25065103667 -1.155599,-1.20442711667 -0.110677,-0.5989583 -0.110677,-1.516927 -0.110677,-2.1028645 0,-0.6380209 0,-1.295573 0.08138,-1.8326823 0.188802,-1.1881511 0.9375,-1.2760417 1.184896,-1.2760417 0.328776,0 0.986328,0.1790365 1.17513,1.1653646 0.100911,0.5566406 0.100911,1.3151041 0.100911,1.9433594 0,0.7454427 0,1.422526 -0.110677,2.0605468 -0.149739,0.94726565 -0.716146,1.24674481667 -1.165364,1.24674481667 z M 49.414906,-3.1902812 c 0,-0.7942709 -0.04883,-1.5917969 -0.397136,-2.3307292 -0.458984,-0.9570313 -1.276041,-1.1165365 -1.695963,-1.1165365 -0.595703,0 -1.32487,0.2604167 -1.731771,1.1881511 -0.31901,0.6868489 -0.371094,1.4648437 -0.371094,2.2591146 0,0.7486979 0.04232,1.6471354 0.449219,2.4023437 0.429688,0.80729167 1.155599,1.00585938 1.64388,1.00585938 0.53711,0 1.295573,-0.20833334 1.735026,-1.15559896 0.319011,-0.68684892 0.367839,-1.46484372 0.367839,-2.25260412 z m -2.102865,3.19010411667 c -0.38737,0 -0.976562,-0.25065103667 -1.155599,-1.20442711667 -0.110677,-0.5989583 -0.110677,-1.516927 -0.110677,-2.1028645 0,-0.6380209 0,-1.295573 0.08138,-1.8326823 0.188802,-1.1881511 0.9375,-1.2760417 1.184896,-1.2760417 0.328776,0 0.986328,0.1790365 1.17513,1.1653646 0.100912,0.5566406 0.100912,1.3151041 0.100912,1.9433594 0,0.7454427 0,1.422526 -0.110677,2.0605468 -0.14974,0.94726565 -0.716146,1.24674481667 -1.165365,1.24674481667 z m 0,0"
       style="fill:#6a699d;fill-opacity:1;fill-rule:nonzero;stroke:#6a699d;stroke-opacity:1;stroke-width:0.07874016;stroke-dasharray:none"
       aria-label="0100"
       transform="matrix(4.8,0,0,4.8,-319.82827,360.9696)"
       clip-path="url(#clipPath10)" /><path
       id="path11"
       d="m 2.929717,-6.3765638 c 0,-0.2408854 0,-0.2604167 -0.2278646,-0.2604167 -0.6184896,0.6380209 -1.4973958,0.6380209 -1.81640622,0.6380209 v 0.3092448 c 0.20182292,0 0.78776042,0 1.30533852,-0.2571615 v 5.15950521 c 0,0.35807291 -0.029297,0.47851562 -0.9244791,0.47851562 H 0.94729514 V 3.8932292e-4 C 1.2956024,-0.02890755 2.1614878,-0.02890755 2.5618785,-0.02890755 c 0.3971354,0 1.2630208,0 1.6145833,0.0292968729 V -0.30885547 H 3.8574514 c -0.8984375,0 -0.9277344,-0.11067708 -0.9277344,-0.47851562 z m 16.597494,3.186849 c 0,-0.7942709 -0.04883,-1.5917969 -0.397136,-2.3307292 -0.458984,-0.9570313 -1.276042,-1.1165365 -1.695963,-1.1165365 -0.595704,0 -1.32487,0.2604167 -1.731771,1.1881511 -0.319011,0.6868489 -0.371094,1.4648437 -0.371094,2.2591146 0,0.7486979 0.04232,1.6471354 0.449219,2.40234371 0.429687,0.80729166 1.155599,1.00585937 1.64388,1.00585937 0.537109,0 1.295573,-0.20833333 1.735026,-1.15559896 0.31901,-0.68684892 0.367839,-1.46484372 0.367839,-2.25260412 z M 17.424346,3.8932292e-4 c -0.38737,0 -0.976563,-0.25065104292 -1.155599,-1.20442712292 -0.110677,-0.5989583 -0.110677,-1.516927 -0.110677,-2.1028645 0,-0.6380209 0,-1.295573 0.08138,-1.8326823 0.188802,-1.1881511 0.9375,-1.2760417 1.184896,-1.2760417 0.328776,0 0.986328,0.1790365 1.17513,1.1653646 0.100912,0.5566406 0.100912,1.3151041 0.100912,1.9433594 0,0.7454427 0,1.422526 -0.110677,2.0605468 -0.14974,0.94726566 -0.716146,1.24674482292 -1.165365,1.24674482292 z M 32.817412,-6.3765638 c 0,-0.2408854 0,-0.2604167 -0.227864,-0.2604167 -0.61849,0.6380209 -1.497396,0.6380209 -1.816407,0.6380209 v 0.3092448 c 0.201823,0 0.787761,0 1.305339,-0.2571615 v 5.15950521 c 0,0.35807291 -0.0293,0.47851562 -0.924479,0.47851562 H 30.83499 V 3.8932292e-4 C 31.183298,-0.02890755 32.049183,-0.02890755 32.449574,-0.02890755 c 0.397135,0 1.263021,0 1.614583,0.0292968729 V -0.30885547 h -0.31901 c -0.898438,0 -0.927735,-0.11067708 -0.927735,-0.47851562 z m 16.597494,3.186849 c 0,-0.7942709 -0.04883,-1.5917969 -0.397136,-2.3307292 -0.458984,-0.9570313 -1.276041,-1.1165365 -1.695963,-1.1165365 -0.595703,0 -1.32487,0.2604167 -1.731771,1.1881511 -0.31901,0.6868489 -0.371094,1.4648437 -0.371094,2.2591146 0,0.7486979 0.04232,1.6471354 0.449219,2.40234371 0.429688,0.80729166 1.155599,1.00585937 1.64388,1.00585937 0.53711,0 1.295573,-0.20833333 1.735026,-1.15559896 0.319011,-0.68684892 0.367839,-1.46484372 0.367839,-2.25260412 z M 47.312041,3.8932292e-4 c -0.38737,0 -0.976562,-0.25065104292 -1.155599,-1.20442712292 -0.110677,-0.5989583 -0.110677,-1.516927 -0.110677,-2.1028645 0,-0.6380209 0,-1.295573 0.08138,-1.8326823 0.188802,-1.1881511 0.9375,-1.2760417 1.184896,-1.2760417 0.328776,0 0.986328,0.1790365 1.17513,1.1653646 0.100912,0.5566406 0.100912,1.3151041 0.100912,1.9433594 0,0.7454427 0,1.422526 -0.110677,2.0605468 -0.14974,0.94726566 -0.716146,1.24674482292 -1.165365,1.24674482292 z m 0,0"
       style="fill:#6a699d;fill-opacity:1;fill-rule:nonzero;stroke:#6a699d;stroke-opacity:1;stroke-width:0.07874016;stroke-dasharray:none"
       aria-label="1010"
       transform="matrix(4.8,0,0,4.8,-319.82827,418.3536)"
       clip-path="url(#clipPath12)" /><path
       id="path13"
       d="m 4.5833628,-3.1901484 c 0,-0.7942709 -0.048828,-1.5917969 -0.3971354,-2.3307292 -0.4589843,-0.9570313 -1.2760416,-1.1165365 -1.6959635,-1.1165365 -0.5957031,0 -1.3248698,0.2604167 -1.73177084,1.1881511 -0.31901042,0.6868489 -0.37109375,1.4648437 -0.37109375,2.2591146 0,0.7486979 0.0423177,1.6471354 0.44921875,2.40234371 0.42968754,0.80729167 1.15559894,1.00585938 1.64388024,1.00585938 0.5371093,0 1.2955729,-0.20833334 1.735026,-1.15559896 C 4.5345347,-1.6243932 4.5833628,-2.402388 4.5833628,-3.1901484 Z M 2.4804983,-4.4270833e-5 c -0.3873698,0 -0.9765625,-0.250651039167 -1.155599,-1.204427129167 -0.1106771,-0.5989583 -0.1106771,-1.516927 -0.1106771,-2.1028645 0,-0.6380209 0,-1.295573 0.08138,-1.8326823 0.1888021,-1.1881511 0.9375,-1.2760417 1.1848959,-1.2760417 0.328776,0 0.9863281,0.1790365 1.1751302,1.1653646 0.1009114,0.5566406 0.1009114,1.3151042 0.1009114,1.9433594 0,0.7454427 0,1.422526 -0.1106771,2.0605468 C 3.4961233,-0.29952344 2.929717,-4.4270833e-5 2.4804983,-4.4270833e-5 Z M 17.873565,-6.3769974 c 0,-0.2408854 0,-0.2604167 -0.227865,-0.2604167 -0.618489,0.6380209 -1.497396,0.6380209 -1.816406,0.6380209 v 0.3092448 c 0.201823,0 0.78776,0 1.305338,-0.2571615 v 5.15950521 c 0,0.35807292 -0.0293,0.47851563 -0.924479,0.47851563 h -0.31901 V -4.4270833e-5 C 16.23945,-0.02934115 17.105336,-0.02934115 17.505726,-0.02934115 c 0.397136,0 1.263021,0 1.614583,0.02929687917 V -0.30928906 h -0.31901 c -0.898437,0 -0.927734,-0.11067709 -0.927734,-0.47851563 z m 16.597493,3.186849 c 0,-0.7942709 -0.04883,-1.5917969 -0.397135,-2.3307292 -0.458985,-0.9570313 -1.276042,-1.1165365 -1.695964,-1.1165365 -0.595703,0 -1.32487,0.2604167 -1.731771,1.1881511 -0.31901,0.6868489 -0.371093,1.4648437 -0.371093,2.2591146 0,0.7486979 0.04232,1.6471354 0.449218,2.40234371 0.429688,0.80729167 1.155599,1.00585938 1.643881,1.00585938 0.537109,0 1.295572,-0.20833334 1.735026,-1.15559896 0.31901,-0.68684893 0.367838,-1.46484373 0.367838,-2.25260413 z M 32.368194,-4.4270833e-5 c -0.38737,0 -0.976563,-0.250651039167 -1.155599,-1.204427129167 -0.110677,-0.5989583 -0.110677,-1.516927 -0.110677,-2.1028645 0,-0.6380209 0,-1.295573 0.08138,-1.8326823 0.188802,-1.1881511 0.9375,-1.2760417 1.184896,-1.2760417 0.328776,0 0.986328,0.1790365 1.17513,1.1653646 0.100911,0.5566406 0.100911,1.3151042 0.100911,1.9433594 0,0.7454427 0,1.422526 -0.110677,2.0605468 -0.149739,0.94726566 -0.716146,1.246744829167 -1.165364,1.246744829167 z M 47.76126,-6.3769974 c 0,-0.2408854 0,-0.2604167 -0.227865,-0.2604167 -0.618489,0.6380209 -1.497395,0.6380209 -1.816406,0.6380209 v 0.3092448 c 0.201823,0 0.787761,0 1.305339,-0.2571615 v 5.15950521 c 0,0.35807292 -0.0293,0.47851563 -0.924479,0.47851563 H 45.778838 V -4.4270833e-5 C 46.127145,-0.02934115 46.993031,-0.02934115 47.393421,-0.02934115 c 0.397136,0 1.263021,0 1.614584,0.02929687917 V -0.30928906 h -0.319011 c -0.898437,0 -0.927734,-0.11067709 -0.927734,-0.47851563 z m 0,0"
       style="fill:#6a699d;fill-opacity:1;fill-rule:nonzero;stroke:#6a699d;stroke-opacity:1;stroke-width:0.07874016;stroke-dasharray:none"
       aria-label="0101"
       transform="matrix(4.8,0,0,4.8,-319.82827,475.7424)"
       clip-path="url(#clipPath14)" /><path
       id="path15"
       d="m 4.5833628,-3.1903958 c 0,-0.7942709 -0.048828,-1.5917969 -0.3971354,-2.3307292 -0.4589843,-0.9570313 -1.2760416,-1.1165365 -1.6959635,-1.1165365 -0.5957031,0 -1.3248698,0.2604167 -1.73177084,1.1881511 -0.31901042,0.6868489 -0.37109375,1.4648437 -0.37109375,2.2591146 0,0.7486979 0.0423177,1.6471354 0.44921875,2.40234372 0.42968754,0.80729166 1.15559894,1.00585937 1.64388024,1.00585937 0.5371093,0 1.2955729,-0.20833333 1.735026,-1.15559896 C 4.5345347,-1.6246406 4.5833628,-2.4026354 4.5833628,-3.1903958 Z M 2.4804983,-2.9166667e-4 c -0.3873698,0 -0.9765625,-0.25065104333 -1.155599,-1.20442713333 -0.1106771,-0.5989583 -0.1106771,-1.516927 -0.1106771,-2.1028645 0,-0.6380209 0,-1.295573 0.08138,-1.8326823 0.1888021,-1.1881511 0.9375,-1.2760417 1.1848959,-1.2760417 0.328776,0 0.9863281,0.1790365 1.1751302,1.1653646 0.1009114,0.5566406 0.1009114,1.3151042 0.1009114,1.9433594 0,0.7454427 0,1.422526 -0.1106771,2.0605468 C 3.4961233,-0.29977083 2.929717,-2.9166667e-4 2.4804983,-2.9166667e-4 Z M 19.527211,-3.1903958 c 0,-0.7942709 -0.04883,-1.5917969 -0.397136,-2.3307292 -0.458984,-0.9570313 -1.276042,-1.1165365 -1.695963,-1.1165365 -0.595704,0 -1.32487,0.2604167 -1.731771,1.1881511 -0.319011,0.6868489 -0.371094,1.4648437 -0.371094,2.2591146 0,0.7486979 0.04232,1.6471354 0.449219,2.40234372 0.429687,0.80729166 1.155599,1.00585937 1.64388,1.00585937 0.537109,0 1.295573,-0.20833333 1.735026,-1.15559896 0.31901,-0.68684893 0.367839,-1.46484373 0.367839,-2.25260413 z m -2.102865,3.19010413333 c -0.38737,0 -0.976563,-0.25065104333 -1.155599,-1.20442713333 -0.110677,-0.5989583 -0.110677,-1.516927 -0.110677,-2.1028645 0,-0.6380209 0,-1.295573 0.08138,-1.8326823 0.188802,-1.1881511 0.9375,-1.2760417 1.184896,-1.2760417 0.328776,0 0.986328,0.1790365 1.17513,1.1653646 0.100912,0.5566406 0.100912,1.3151042 0.100912,1.9433594 0,0.7454427 0,1.422526 -0.110677,2.0605468 -0.14974,0.94726567 -0.716146,1.24674483333 -1.165365,1.24674483333 z M 32.817412,-6.3772448 c 0,-0.2408854 0,-0.2604167 -0.227864,-0.2604167 -0.61849,0.6380209 -1.497396,0.6380209 -1.816407,0.6380209 v 0.3092448 c 0.201823,0 0.787761,0 1.305339,-0.2571615 v 5.15950522 c 0,0.35807291 -0.0293,0.47851562 -0.924479,0.47851562 H 30.83499 V -2.9166667e-4 C 31.183298,-0.02958854 32.049183,-0.02958854 32.449574,-0.02958854 c 0.397135,0 1.263021,0 1.614583,0.0292968733 V -0.30953646 h -0.31901 c -0.898438,0 -0.927735,-0.11067708 -0.927735,-0.47851562 z m 16.597494,3.186849 c 0,-0.7942709 -0.04883,-1.5917969 -0.397136,-2.3307292 -0.458984,-0.9570313 -1.276041,-1.1165365 -1.695963,-1.1165365 -0.595703,0 -1.32487,0.2604167 -1.731771,1.1881511 -0.31901,0.6868489 -0.371094,1.4648437 -0.371094,2.2591146 0,0.7486979 0.04232,1.6471354 0.449219,2.40234372 0.429688,0.80729166 1.155599,1.00585937 1.64388,1.00585937 0.53711,0 1.295573,-0.20833333 1.735026,-1.15559896 0.319011,-0.68684893 0.367839,-1.46484373 0.367839,-2.25260413 z m -2.102865,3.19010413333 c -0.38737,0 -0.976562,-0.25065104333 -1.155599,-1.20442713333 -0.110677,-0.5989583 -0.110677,-1.516927 -0.110677,-2.1028645 0,-0.6380209 0,-1.295573 0.08138,-1.8326823 0.188802,-1.1881511 0.9375,-1.2760417 1.184896,-1.2760417 0.328776,0 0.986328,0.1790365 1.17513,1.1653646 0.100912,0.5566406 0.100912,1.3151042 0.100912,1.9433594 0,0.7454427 0,1.422526 -0.110677,2.0605468 -0.14974,0.94726567 -0.716146,1.24674483333 -1.165365,1.24674483333 z m 0,0"
       style="fill:#6a699d;fill-opacity:1;fill-rule:nonzero;stroke:#6a699d;stroke-opacity:1;stroke-width:0.07874016;stroke-dasharray:none"
       aria-label="0010"
       transform="matrix(4.8,0,0,4.8,-319.82827,533.1264)"
       clip-path="url(#clipPath16)" /><path
       style="fill:none;fill-opacity:1;fill-rule:evenodd;stroke:#6a699d;stroke-width:3.02362;stroke-linejoin:round;stroke-dasharray:none;stroke-opacity:1"
       d="m -77.17581,320.94922 c 1.258252,1.5607 2.516508,3.1214 3.707508,4.73423 1.190999,1.61283 2.314695,3.27772 3.399255,5.01226 1.08456,1.73455 2.129909,3.53863 3.213356,5.59897 1.083448,2.06034 2.204924,4.37681 3.156484,6.51543 0.95156,2.13862 1.73315,4.09926 2.398836,5.90271 0.665686,1.80345 1.215427,3.44959 1.771063,5.26713 0.555636,1.81753 1.117131,3.80634 1.633706,5.83342 0.516575,2.02708 0.9882,4.09231 1.42907,6.26 0.44087,2.1677 0.850963,4.43774 1.17278,6.38526 0.321817,1.94751 0.555342,3.57239 0.794545,5.48325 0.239204,1.91085 0.484073,4.10756 0.672186,6.00667 0.188114,1.8991 0.319461,3.50048 0.438244,5.23073 0.118783,1.73026 0.224994,3.58928 0.298271,5.06357 0.07328,1.4743 0.113616,2.56379 0.151201,4.74047 0.03759,2.17668 0.07241,5.4404 0.08983,8.12917 0.01741,2.68876 0.01741,4.80243 0.01741,7.91348 0,3.11104 0,7.21925 0,10.67544 0,3.4562 0,6.26018 0,12.44484 0,6.18467 0,15.74959 -0.01724,22.06278 -0.01724,6.31319 -0.05171,9.37435 -0.109603,11.84911 -0.05789,2.47477 -0.139188,4.36301 -0.225337,6.02621 -0.08615,1.6632 -0.177144,3.10126 -0.404216,5.67491 -0.227072,2.57365 -0.590205,6.28271 -1.020397,9.6981 -0.430192,3.41539 -0.927416,6.53691 -1.322365,8.80368 -0.394949,2.26677 -0.687603,3.67868 -1.039457,5.2255 -0.351854,1.54682 -0.762885,3.22845 -1.156691,4.73224 -0.393805,1.50379 -0.77036,2.82965 -1.371639,4.70917 -0.601278,1.87953 -1.42724,4.3126 -2.125475,6.23732 -0.698235,1.92472 -1.268706,3.34099 -1.982544,4.97418 -0.713839,1.63319 -1.570994,3.48318 -2.485448,5.2903 -0.914454,1.80712 -1.886149,3.57125 -2.983263,5.39311 -1.097113,1.82185 -2.319578,3.70132 -3.479306,5.37006 -1.159728,1.66873 -2.256654,3.12665 -3.008514,4.09388 -0.751861,0.96724 -1.158621,1.44375 -1.565386,1.92026"
       id="path37"
       inkscape:path-effect="#path-effect37"
       inkscape:original-d="m -77.17581,320.94922 c 1.25825,1.5607 2.51651,3.1214 3.77476,4.6821 1.12375,1.66496 2.24744,3.32985 3.37117,4.99478 1.04539,1.80416 2.09074,3.60824 3.13612,5.41237 1.12152,2.31655 2.24299,4.63302 3.36449,6.94953 0.78162,1.96073 1.56322,3.92137 2.34482,5.88206 0.54977,1.64621 1.09951,3.29235 1.64926,4.93853 0.56152,1.98889 1.12301,3.9777 1.68452,5.96655 0.47164,2.06531 0.94326,4.13054 1.4149,6.1958 0.41011,2.27013 0.8202,4.54017 1.2303,6.81025 0.23354,1.62495 0.46706,3.24983 0.70059,4.87475 0.24488,2.19679 0.48975,4.3935 0.73462,6.59026 0.13135,1.60145 0.2627,3.20283 0.39405,4.80424 0.10621,1.8591 0.21243,3.71812 0.31864,5.57717 0.0403,1.08954 0.0807,2.17903 0.12102,3.26854 0.0348,3.26385 0.0697,6.52757 0.10449,9.79135 0,2.11375 0,4.22742 0,6.34112 0,4.10839 0,8.2166 0,12.3249 0,2.80409 0,5.60807 0,8.41211 0,9.56529 0,19.13021 0,28.69531 -0.0345,3.06128 -0.0689,6.12244 -0.10343,9.18366 -0.0813,1.88831 -0.1626,3.77655 -0.2439,5.66483 -0.091,1.43812 -0.18199,2.87618 -0.27299,4.31427 -0.36315,3.70921 -0.72628,7.41827 -1.08942,11.12741 -0.49725,3.12164 -0.99447,6.24316 -1.4917,9.36473 -0.29267,1.41197 -0.58532,2.82388 -0.87798,4.23582 -0.41105,1.6817 -0.82208,3.36333 -1.23312,5.045 -0.37657,1.32591 -0.75312,2.65177 -1.12969,3.97766 -0.82599,2.43316 -1.65195,4.86623 -2.47793,7.29934 -0.57049,1.41633 -1.14097,2.8326 -1.71145,4.24891 -0.85719,1.85007 -1.71435,3.70006 -2.57152,5.55009 -0.97173,1.76421 -1.94343,3.52834 -2.91515,5.29252 -1.22251,1.87953 -2.44497,3.759 -3.66746,5.6385 -1.09697,1.45797 -2.19389,2.91589 -3.29084,4.37383 -0.40677,0.47653 -0.81353,0.95304 -1.2203,1.42955" /></g></svg>
